<svg width="28" height="28" viewBox="0 0 28 28" fill="none" xmlns="http://www.w3.org/2000/svg">
<circle cx="14" cy="14" r="14" fill="#F59124"/>
<path d="M18.6069 9.91038C17.5085 8.90346 16.1812 8.39999 14.5335 8.39999C12.84 8.39999 11.3754 8.94923 10.1854 10.0935C8.99539 11.2377 8.40039 12.6565 8.40039 14.35C8.40039 15.9977 8.94963 17.3708 10.0939 18.5608C11.2381 19.7508 12.7485 20.3 14.7166 20.3C15.8608 20.3 17.005 20.0711 18.1492 19.5677C18.5154 19.4304 18.6985 18.9727 18.5612 18.6065C18.4239 18.2404 17.9662 18.0573 17.6 18.1946C16.6389 18.6065 15.6777 18.8354 14.7623 18.8354C13.2977 18.8354 12.1535 18.3777 11.3296 17.4623C10.5058 16.5469 10.0939 15.4942 10.0939 14.3042C10.0939 12.9769 10.5515 11.8785 11.3754 11.0088C12.245 10.1392 13.2977 9.68153 14.5792 9.68153C15.7235 9.68153 16.7304 10.0477 17.5542 10.78C18.3781 11.5123 18.7442 12.4277 18.7442 13.5261C18.7442 14.2585 18.5612 14.8992 18.195 15.4027C17.8289 15.9061 17.4627 16.135 17.0508 16.135C16.8219 16.135 16.7304 16.0435 16.7304 15.7688C16.7304 15.5858 16.7304 15.3569 16.7762 15.1281L17.2339 11.4208H15.6777L15.5862 11.7869C15.1742 11.4665 14.7623 11.2835 14.3046 11.2835C13.5723 11.2835 12.9316 11.6038 12.3823 12.1988C11.8331 12.7938 11.6042 13.5719 11.6042 14.4873C11.6042 15.4027 11.8331 16.135 12.3365 16.73C12.7942 17.2792 13.3892 17.5538 14.03 17.5538C14.625 17.5538 15.1285 17.325 15.5404 16.8215C15.8608 17.2792 16.3185 17.5538 16.9592 17.5538C17.8746 17.5538 18.6527 17.1419 19.3392 16.3638C20.0258 15.5858 20.3462 14.6246 20.3462 13.4804C20.2089 12.1073 19.6596 10.8715 18.6069 9.91038ZM14.9912 15.4942C14.7165 15.8604 14.3962 16.0435 13.9842 16.0435C13.7096 16.0435 13.5266 15.9061 13.3435 15.6315C13.1604 15.3569 13.1146 15.0365 13.1146 14.6246C13.1146 14.1211 13.2062 13.7092 13.435 13.4346C13.6639 13.1142 13.9385 12.9769 14.2589 12.9769C14.5335 12.9769 14.8081 13.0685 15.0369 13.3431C15.2658 13.5719 15.3573 13.8923 15.3573 14.2585C15.4031 14.7161 15.2658 15.1281 14.9912 15.4942Z" fill="white"/>
</svg>
