<svg width="28" height="28" viewBox="0 0 28 28" fill="none" xmlns="http://www.w3.org/2000/svg">
<circle cx="14" cy="14" r="14" fill="#7C509A"/>
<path d="M18.3777 7.38214C15.7097 6.87262 12.939 6.87262 10.2709 7.38214C9.09084 7.6369 7.60288 9.06355 7.34634 10.1845C6.88455 12.3754 6.88455 14.6173 7.34634 16.8082C7.65419 17.9292 9.14215 19.3558 10.2709 19.6106C10.3223 19.6106 10.3736 19.6616 10.3736 19.7125V22.9225C10.3736 23.0753 10.5788 23.1772 10.6814 23.0244L12.2207 21.4449C12.2207 21.4449 13.4521 20.1711 13.6573 19.9673C13.6573 19.9673 13.7086 19.9163 13.7599 19.9163C15.2992 19.9673 16.8898 19.8144 18.4291 19.5597C19.6092 19.3049 21.0971 17.8782 21.3537 16.7573C21.8154 14.5664 21.8154 12.3245 21.3537 10.1335C21.0458 9.06355 19.5579 7.6369 18.3777 7.38214ZM18.4291 16.9611C18.1725 17.4706 17.8647 17.8782 17.3516 18.133C17.1976 18.184 17.0437 18.2349 16.8898 18.2859C16.6846 18.2349 16.5306 18.184 16.3767 18.133C14.7348 17.4706 13.1956 16.5535 11.9641 15.2287C11.2971 14.4645 10.7327 13.5983 10.2709 12.6811C10.0657 12.2226 9.86047 11.815 9.70654 11.3564C9.55262 10.9488 9.80916 10.5412 10.0657 10.2354C10.3222 9.92974 10.6301 9.72593 10.9893 9.57307C11.2458 9.42022 11.5024 9.52212 11.7076 9.72593C12.1181 10.2354 12.5285 10.745 12.8364 11.3054C13.0416 11.6621 12.9903 12.0697 12.6312 12.3245C12.5285 12.3754 12.4772 12.4264 12.3746 12.5283C12.3233 12.5792 12.2207 12.6302 12.1694 12.7321C12.0668 12.8849 12.0668 13.0378 12.1181 13.1907C12.5285 14.3626 13.2982 15.2797 14.4783 15.7892C14.6835 15.8911 14.8374 15.9421 15.094 15.9421C15.4531 15.8911 15.6071 15.4835 15.8636 15.2797C16.1202 15.0759 16.428 15.0759 16.7359 15.2287C16.9924 15.3816 17.249 15.5854 17.5568 15.7892C17.8133 15.993 18.0699 16.1459 18.3264 16.3497C18.4804 16.4516 18.5317 16.7063 18.4291 16.9611ZM16.2741 13.1397C16.1715 13.1397 16.2228 13.1397 16.2741 13.1397C16.0688 13.1397 16.0175 13.0378 15.9662 12.885C15.9662 12.783 15.9662 12.6302 15.9149 12.5283C15.8636 12.3245 15.761 12.1207 15.5558 11.9678C15.4531 11.9169 15.3505 11.8659 15.2479 11.815C15.094 11.764 14.9914 11.764 14.8374 11.764C14.6835 11.7131 14.6322 11.6112 14.6322 11.4583C14.6322 11.3564 14.7861 11.2545 14.8887 11.2545C15.7097 11.3054 16.3254 11.764 16.428 12.7321C16.428 12.783 16.428 12.8849 16.428 12.9359C16.428 13.0378 16.3767 13.1397 16.2741 13.1397ZM15.761 10.8978C15.5044 10.7959 15.2479 10.694 14.9401 10.6431C14.8374 10.6431 14.6835 10.5921 14.5809 10.5921C14.427 10.5921 14.3243 10.4902 14.3757 10.3374C14.3757 10.1845 14.4783 10.0826 14.6322 10.1335C15.1453 10.1845 15.6071 10.2864 16.0688 10.4902C16.9924 10.9488 17.5055 11.7131 17.6594 12.7321C17.6594 12.783 17.6594 12.834 17.6594 12.885C17.6594 12.9869 17.6594 13.0888 17.6594 13.2416C17.6594 13.2926 17.6594 13.3435 17.6594 13.3945C17.6081 13.5983 17.249 13.6492 17.1976 13.3945C17.1976 13.3435 17.1463 13.2416 17.1463 13.1907C17.1463 12.7321 17.0437 12.2735 16.8385 11.8659C16.5306 11.4073 16.1715 11.1016 15.761 10.8978ZM18.5317 13.9549C18.3777 13.9549 18.2751 13.8021 18.2751 13.6492C18.2751 13.3435 18.2238 13.0378 18.1725 12.7321C17.9673 11.1016 16.6332 9.77688 15.0427 9.52212C14.7861 9.47117 14.5296 9.47117 14.3243 9.42022C14.1704 9.42022 13.9652 9.42022 13.9139 9.21641C13.8626 9.06355 14.0165 8.9107 14.1704 8.9107C14.2217 8.9107 14.273 8.9107 14.273 8.9107C16.3767 8.96165 14.3757 8.9107 14.273 8.9107C16.428 8.96165 18.2238 10.3883 18.583 12.5283C18.6343 12.885 18.6856 13.2416 18.6856 13.6492C18.7882 13.8021 18.6856 13.9549 18.5317 13.9549Z" fill="white"/>
</svg>
