<svg width="98" height="20" viewBox="0 0 98 20" fill="none" xmlns="http://www.w3.org/2000/svg">
<path fill-rule="evenodd" clip-rule="evenodd" d="M91.7998 9.95169C93.4998 9.95169 94.4998 10.8213 94.4998 12.7536C94.4998 14.7826 93.3998 15.5556 91.6998 15.5556H90.9998V9.95169H91.7998ZM97.9998 4.83092H96.8998V16.4251H97.9998V4.83092ZM89.8998 16.4251H91.7998C94.0998 16.4251 95.5998 15.1691 95.5998 12.7536C95.5998 10.3382 94.0998 9.17874 91.7998 9.17874H90.9998V4.83092H89.8998V16.4251ZM87.8998 4.7343V4.83092H81.1998V5.70048H83.9998V16.4251H85.0998V5.70048H87.8998V4.7343ZM76.8998 16.6184C79.0998 16.6184 80.5998 14.4928 80.5998 10.2415C80.5998 6.8599 79.3998 4.54106 77.3998 4.54106C76.0998 4.54106 75.1998 5.60386 74.6998 6.66667L74.5998 4.7343H73.5998V19.9034H74.6998V15.5556C75.2998 16.2319 76.0998 16.6184 76.8998 16.6184ZM76.9998 15.7488C75.8998 15.7488 75.2998 15.2657 74.7998 14.3961V7.9227C75.2998 6.66667 76.1998 5.60386 77.2998 5.60386C78.6998 5.60386 79.4998 7.43961 79.4998 10.4348C79.4998 14.0097 78.4998 15.7488 76.9998 15.7488ZM70.2998 16.4251H71.2998C71.1998 15.942 70.9998 15.0725 70.9998 14.2995V8.01932C70.9998 5.70048 69.8998 4.63768 67.8998 4.63768C66.4998 4.63768 65.4998 5.21739 65.0998 5.7971L65.3998 6.8599C65.9998 5.99034 66.9998 5.60386 67.9998 5.60386C69.2998 5.60386 69.9998 6.37681 69.9998 8.11594V9.56522H68.6998C66.0998 9.56522 64.6998 10.8213 64.6998 13.3333C64.6998 15.4589 65.7998 16.715 67.3998 16.715C68.5998 16.715 69.3998 16.0386 69.9998 14.8792C70.0998 15.6522 70.1998 16.1353 70.2998 16.4251ZM67.6998 15.7488C66.5998 15.7488 65.7998 14.7826 65.7998 13.1401C65.7998 11.1111 66.7998 10.2415 68.6998 10.2415H69.9998V13.5266C69.5998 14.7826 68.7998 15.7488 67.6998 15.7488ZM62.5998 16.4251H63.9998L58.6998 7.53623L63.5998 0H62.4998L57.4998 7.63285V0H56.2998V16.4251H57.4998V7.72947L62.5998 16.4251Z" fill="#333333"/>
<path fill-rule="evenodd" clip-rule="evenodd" d="M31.5002 6.18359C32.6002 6.18359 32.9002 7.63286 32.9002 9.56523H29.8002C29.9002 7.53625 30.3002 6.18359 31.5002 6.18359ZM23.9002 14.9759H20.7002C21.7002 12.5604 21.8002 8.98552 21.8002 6.57006V6.37683H23.9002V14.9759ZM48.1002 16.6184C49.2002 16.6184 50.0002 16.2319 50.6002 15.7488L50.2002 14.3961C49.8002 14.7826 49.1002 15.0725 48.2002 15.0725C46.7002 15.0725 46.0002 13.43 46.0002 10.5314C46.0002 7.63286 47.0002 6.18359 48.3002 6.18359C49.1002 6.18359 49.8002 6.57006 50.3002 6.95654L50.6002 5.21741C50.1002 4.92755 49.5002 4.6377 48.4002 4.6377C45.6002 4.6377 44.1002 6.95654 44.1002 10.628C43.9002 14.5894 45.5002 16.6184 48.1002 16.6184ZM41.7002 16.4251H43.7002L40.3002 10.3382L43.3002 4.92755H41.4002L38.5002 10.2416V4.83093H36.6002V16.4251H38.5002V10.628L41.7002 16.4251ZM15.4002 4.83093V9.75847H12.6002V4.83093H10.7002V16.4251H12.6002V11.2077H15.4002V16.4251H17.2002V4.83093H15.4002ZM34.8002 15.6522L34.4002 14.2995C33.9002 14.5894 33.1002 15.0725 32.0002 15.0725C30.5002 15.0725 29.8002 13.7198 29.8002 11.1111H34.8002V10.1449C34.8002 6.18359 33.5002 4.73431 31.5002 4.73431C29.0002 4.73431 27.9002 7.43963 27.9002 11.2077C27.9002 14.7826 29.4002 16.715 31.9002 16.715C33.0002 16.6184 34.0002 16.2319 34.8002 15.6522ZM26.7002 14.9759H25.7002V4.83093H20.1002V5.79712C20.1002 8.8889 20.0002 12.4638 18.9002 14.8792H18.2002V18.6474H19.9002V16.4251H25.0002V18.744H26.7002V14.9759Z" fill="#333333"/>
<path fill-rule="evenodd" clip-rule="evenodd" d="M6.5 10.1449V16.4251H8.3V0H5.6C3 0 0.7 1.73913 0.7 5.12077C0.7 7.53623 1.7 8.88889 3.2 9.66183L0 16.4251H2.1L5 10.1449H6.5ZM6.5 8.69565H5.5C4 8.69565 2.7 7.82609 2.7 5.12077C2.7 2.41546 4.1 1.44928 5.6 1.44928H6.6V8.69565H6.5Z" fill="#FF0000"/>
</svg>
